<svg xmlns="http://www.w3.org/2000/svg" width="450" height="450"><path d="M28.549 320.918h997.775a18.39 18.39 0 0 1 18.43 18.43v676.508a18.39 18.39 0 0 1-18.43 18.43H28.55a18.39 18.39 0 0 1-18.43-18.43V339.348a18.39 18.39 0 0 1 18.43-18.43z" style="display:inline;fill:#fff;fill-opacity:1;stroke-width:.357;stroke-dasharray:none;paint-order:normal" transform="matrix(.43478 0 0 .6306 -4.32 -202.204)"/><path d="M187.808 344.993c-3.894-.369-7.024 3.124-7.258 7.183l-10.32 179.201c-.318 5.516 3.17 11.373 7.82 13.132L409.39 632.03c3.008 1.139 7.973-.805 8.426-6.36l14.56-178.221c.318-5.516-3.17-11.373-7.82-13.132l-.017.005-235.02-88.924a6.58 6.58 0 0 0-1.71-.404zm12.822 27.719h.005c.242-.03.619.022 1.275.27l203.491 77.096c2.795 1.058 5.512 5.497 5.344 8.99-.008.02.002.041.002.061L399.02 602.555c-.133 1.638-.548 1.775-.71 1.876-.163.1-.842.303-1.445.075l-200.523-75.98c-2.81-1.062-5.554-5.549-5.353-9.05l8.29-144.25c.075-1.31.72-2.132.905-2.284.093-.076.204-.2.446-.23zm-36.562 175.024c-3.002.148-5.976.795-8.22 1.91l-139.533 69.06c-5.156 2.552-4.622 9.959 2.129 12.535l230.267 87.875c4.714 1.778 12.12 1.414 16.608-.815 0 0 135.706-67.243 140.822-69.645 5.111-2.402 4.162-10.15-.551-11.929h-.001l-233.133-87.896c-2.357-.889-5.387-1.242-8.388-1.095zm-5.342 77.627c.844-.041 1.697.058 2.36.308L226.7 650.41c1.326.5 1.594 2.681.155 3.357-1.438.677-39.631 19.6-39.631 19.6-1.263.628-3.347.73-4.674.23l-64.808-24.73c-1.9-.726-2.05-2.81-.599-3.529l39.27-19.436c.632-.314 1.469-.496 2.314-.538z" style="display:inline;fill:#000;fill-opacity:1;stroke:none;stroke-width:.916296;stroke-opacity:1" transform="translate(0 -308.27)"/><path d="M266.097 422.487c-1.25.013-2.353.103-3.33.28-1.956.356-3.437 1.083-4.492 2.23-1.023 1.117-1.49 2.476-1.6 4.11-.11 1.636.129 3.567.549 5.886l1.554 8.593-6.82 2.514c-1.188.438-2.016 1.579-1.842 2.538.174.96 1.285 1.387 2.471.95l6.823-2.516 1.704 9.461-.001.001c.409 2.25.98 3.946 1.791 5.112.811 1.167 1.88 1.803 3.244 1.873 1.348.068 2.853-.43 4.529-1.431 1.676-1.001 3.54-2.507 5.67-4.503l22.959-21.507c1.724-1.615 3-3.038 3.813-4.316.813-1.279 1.159-2.424.982-3.429-.176-1.01-.863-1.778-2.02-2.325-1.159-.547-2.789-.886-4.907-1.065l-26.866-2.272c-1.565-.133-2.961-.197-4.211-.184zm-21.144 21.033a5.94 5.94 0 0 0-2.266.498h-.001l-.002.002-30.63 12.939c-1.38.58-2.567 1.522-3.348 2.6-.789 1.088-1.178 2.316-.974 3.469l.372 2.059c.208 1.148.966 1.953 2.024 2.36 1.051.403 2.412.401 3.812-.04l31.194-9.852h.001c.159-.052.237-.077.294-.098a7.063 7.063 0 0 0 3.27-2.492 6.28 6.28 0 0 0 .486-.799c.416-.819.617-1.686.534-2.496a3.333 3.333 0 0 0-.031-.271l-.93-5.146c-.009-.046-.028-.119-.06-.25V446c-.27-1.023-1.015-1.787-2.012-2.182a4.6 4.6 0 0 0-1.732-.3z" style="color:#000;fill:#000;fill-opacity:1;stroke:none;stroke-width:.270342;stroke-opacity:1;-inkscape-stroke:none" transform="translate(0 -308.27)"/><path d="m398.53 516.973-60.637-20.105v-.011c-1.418-.47-2.703-1.486-3.629-2.738-.92-1.245-1.493-2.74-1.493-4.182l-.01-.003V437.28l6.561 2.176v51.194l59.208 19.632zm-21.147-39.99 10.464 3.469c.556.184 1.011.8 1.011 1.367v21.007c0 .568-.455.881-1.011.697l-10.464-3.47c-.557-.184-1.012-.8-1.012-1.368v-21c0-.568.455-.887 1.012-.703zm-31.05-23.147 10.465 3.469c.556.185 1.011.8 1.011 1.368v33.863c0 .568-.455.882-1.011.697l-10.464-3.47c-.557-.184-1.012-.799-1.012-1.367v-33.864c0-.568.455-.881 1.012-.696zm15.528-2.084 10.458 3.468c.557.185 1.012.8 1.012 1.368v41.095c0 .568-.455.881-1.012.697l-10.458-3.468c-.557-.184-1.012-.8-1.012-1.368V452.45c0-.568.455-.881 1.012-.697zM279.277 524.593l-2.928.23c-1.04.082-2.226-.828-2.649-2.031-.416-1.204.088-2.243 1.13-2.329l2.929-.23-4.799-13.775h.007a3.294 3.294 0 0 1-.093-.31c-.37-1.494.426-2.66 1.778-2.59 8.664.45 15.04 5.536 18.797 11.767a27 27 0 0 1 1.796 3.539l1.398-.11-1.973-5.664c-.43-1.232-.384-2.384.034-3.245.418-.861 1.212-1.44 2.28-1.524l4.158-.326-1.443-4.14-2.64.207c-.857.067-1.78-.273-2.573-.88a5.393 5.393 0 0 1-1.79-2.466l-.001-.008h-.007l-6.676-19.175c-.345-.989-.312-1.92.026-2.616.334-.688.976-1.147 1.842-1.219l-.002-.008 9.065-.708c.112-.008.227-.009.343.002.757.028 1.54.35 2.224.875a5.393 5.393 0 0 1 1.79 2.465l.002.008h.007l6.678 19.17c.344.99.311 1.92-.027 2.617-.336.692-.974 1.159-1.838 1.226l-2.648.208 1.443 4.141 9.067-.712c2.83-.222 5.873.912 8.488 2.917 2.614 2.005 4.804 4.884 5.946 8.153 1.138 3.266 1.015 6.33-.1 8.628-1.116 2.298-3.226 3.833-6.058 4.06l-9.063.703 1.442 4.141 2.646-.204c.857-.067 1.78.273 2.572.88a5.418 5.418 0 0 1 1.8 2.473l6.678 19.172c.345.989.312 1.92-.026 2.616-.337.692-.975 1.159-1.839 1.227l-9.067.712c-.857.067-1.78-.272-2.572-.88a5.418 5.418 0 0 1-1.8-2.473l-6.676-19.176c-.345-.988-.312-1.92.027-2.616.334-.688.97-1.15 1.834-1.218h.007l-.002-.008 2.643-.212-1.443-4.14-4.158.326c-1.067.084-2.211-.343-3.191-1.094a6.728 6.728 0 0 1-2.234-3.067l-1.67-4.797-1.51.119c.53 2.343.695 4.648.483 6.755-.576 5.739-3.912 10.01-10.27 9.706-1.28.046-2.706-1.078-3.217-2.545zm-12.444-8.28c.136-1.018 1.09-1.455 2.138-.967 1.041.484 1.78 1.704 1.642 2.727-.25 1.905-.13 3.581.37 5.028.45 1.3 1.24 2.454 2.395 3.458.931.81 1.289 2.105.796 2.897-.49.787-1.644.77-2.58-.043-1.977-1.73-3.35-3.745-4.145-6.047-.75-2.156-.946-4.509-.616-7.053z" style="fill:#000;fill-opacity:1;stroke-width:.540685" transform="translate(0 -308.27)"/></svg>